<?xml version="1.0" encoding="UTF-8" standalone="no"?>
<!DOCTYPE svg PUBLIC "-//W3C//DTD SVG 1.1//EN" "http://www.w3.org/Graphics/SVG/1.1/DTD/svg11.dtd">
<svg width="28px" height="28px" viewBox="0 0 643 464" version="1.1" xmlns="http://www.w3.org/2000/svg" xmlns:xlink="http://www.w3.org/1999/xlink" xml:space="preserve" style="fill-rule:evenodd;clip-rule:evenodd;stroke-linejoin:round;stroke-miterlimit:1.41421;">
    <g transform="matrix(1,0,0,1,-1013.11,-102.73)">
        <path d="M1655.01,351.47C1641.11,532.989 1499.79,548.822 1422.99,566.383C1422.99,566.383 1296.8,565.77 1296.8,566.383C1296.8,567.468 1144.58,363.421 1139.42,362.691L1139.42,566.383L1013.11,566.383L1013.11,351.47L1424.3,351.47L1424.3,441.358C1424.3,441.358 1520.45,416.972 1534.82,351.47L1655.01,351.47ZM1013.11,334.812L1013.11,102.73L1139.42,102.73L1296.8,323.37L1296.8,102.73L1422.99,102.73C1422.99,102.73 1656.87,146.878 1656.11,323.37C1656.09,327.25 1656.02,331.064 1655.9,334.812L1536.61,334.812L1536.61,334.791C1536.54,256.707 1424.3,228.013 1424.3,228.013L1424.3,334.812L1013.11,334.812Z" style="fill:white;"/>
    </g>
</svg>
